<?xml version="1.0" encoding="UTF-8"?>
<!DOCTYPE svg PUBLIC "-//W3C//DTD SVG 1.1//EN" "http://www.w3.org/Graphics/SVG/1.1/DTD/svg11.dtd">
<svg xmlns="http://www.w3.org/2000/svg" xmlns:xlink="http://www.w3.org/1999/xlink" version="1.1" width="362px" height="262px" viewBox="-0.5 -0.5 362 262"><defs/><g><path d="M 60 105 L 106.12 45.05" fill="none" stroke="rgb(0, 0, 0)" stroke-miterlimit="10" pointer-events="stroke"/><path d="M 109.32 40.89 L 106.9 47.86 L 106.12 45.05 L 103.2 45.01 Z" fill="rgb(0, 0, 0)" stroke="rgb(0, 0, 0)" stroke-miterlimit="10" pointer-events="all"/><path d="M 60 105 L 106.3 169.82" fill="none" stroke="rgb(0, 0, 0)" stroke-miterlimit="10" pointer-events="stroke"/><path d="M 109.35 174.09 L 103.38 169.75 L 106.3 169.82 L 107.18 167.04 Z" fill="rgb(0, 0, 0)" stroke="rgb(0, 0, 0)" stroke-miterlimit="10" pointer-events="all"/><rect x="0" y="90" width="60" height="30" fill="none" stroke="rgb(0, 0, 0)" pointer-events="all"/><g fill="rgb(0, 0, 0)" font-family="Courier New" font-size="12px"><text x="5.5" y="109.5">layer</text></g><path d="M 180 40 L 234.3 12.85" fill="none" stroke="rgb(0, 0, 0)" stroke-miterlimit="10" pointer-events="stroke"/><path d="M 239 10.5 L 233.78 15.72 L 234.3 12.85 L 231.7 11.54 Z" fill="rgb(0, 0, 0)" stroke="rgb(0, 0, 0)" stroke-miterlimit="10" pointer-events="all"/><path d="M 180 40 L 233.63 40" fill="none" stroke="rgb(0, 0, 0)" stroke-miterlimit="10" pointer-events="stroke"/><path d="M 238.88 40 L 231.88 42.33 L 233.63 40 L 231.88 37.67 Z" fill="rgb(0, 0, 0)" stroke="rgb(0, 0, 0)" stroke-miterlimit="10" pointer-events="all"/><path d="M 180 40 L 234.3 67.15" fill="none" stroke="rgb(0, 0, 0)" stroke-miterlimit="10" pointer-events="stroke"/><path d="M 239 69.5 L 231.7 68.46 L 234.3 67.15 L 233.78 64.28 Z" fill="rgb(0, 0, 0)" stroke="rgb(0, 0, 0)" stroke-miterlimit="10" pointer-events="all"/><rect x="110" y="30" width="70" height="20" fill="none" stroke="rgb(0, 0, 0)" pointer-events="all"/><g fill="rgb(0, 0, 0)" font-family="Courier New" font-size="12px"><text x="115.5" y="44.5">layer1d</text></g><path d="M 180 175 L 236.02 104.97" fill="none" stroke="rgb(0, 0, 0)" stroke-miterlimit="10" pointer-events="stroke"/><path d="M 239.3 100.87 L 236.75 107.8 L 236.02 104.97 L 233.11 104.88 Z" fill="rgb(0, 0, 0)" stroke="rgb(0, 0, 0)" stroke-miterlimit="10" pointer-events="all"/><path d="M 180 175 L 234.91 133.82" fill="none" stroke="rgb(0, 0, 0)" stroke-miterlimit="10" pointer-events="stroke"/><path d="M 239.11 130.67 L 234.91 136.74 L 234.91 133.82 L 232.11 133 Z" fill="rgb(0, 0, 0)" stroke="rgb(0, 0, 0)" stroke-miterlimit="10" pointer-events="all"/><path d="M 180 175 L 233.82 161.54" fill="none" stroke="rgb(0, 0, 0)" stroke-miterlimit="10" pointer-events="stroke"/><path d="M 238.92 160.27 L 232.69 164.23 L 233.82 161.54 L 231.56 159.71 Z" fill="rgb(0, 0, 0)" stroke="rgb(0, 0, 0)" stroke-miterlimit="10" pointer-events="all"/><path d="M 180 175 L 233.82 188.46" fill="none" stroke="rgb(0, 0, 0)" stroke-miterlimit="10" pointer-events="stroke"/><path d="M 238.92 189.73 L 231.56 190.29 L 233.82 188.46 L 232.69 185.77 Z" fill="rgb(0, 0, 0)" stroke="rgb(0, 0, 0)" stroke-miterlimit="10" pointer-events="all"/><path d="M 180 175 L 234.91 216.18" fill="none" stroke="rgb(0, 0, 0)" stroke-miterlimit="10" pointer-events="stroke"/><path d="M 239.11 219.33 L 232.11 217 L 234.91 216.18 L 234.91 213.26 Z" fill="rgb(0, 0, 0)" stroke="rgb(0, 0, 0)" stroke-miterlimit="10" pointer-events="all"/><path d="M 180 175 L 236.02 245.03" fill="none" stroke="rgb(0, 0, 0)" stroke-miterlimit="10" pointer-events="stroke"/><path d="M 239.3 249.13 L 233.11 245.12 L 236.02 245.03 L 236.75 242.2 Z" fill="rgb(0, 0, 0)" stroke="rgb(0, 0, 0)" stroke-miterlimit="10" pointer-events="all"/><rect x="110" y="160" width="70" height="30" fill="none" stroke="rgb(0, 0, 0)" pointer-events="all"/><g fill="rgb(0, 0, 0)" font-family="Courier New" font-size="12px"><text x="115.5" y="179.5">layer3d</text></g><rect x="240" y="0" width="120" height="20" fill="none" stroke="rgb(0, 0, 0)" pointer-events="all"/><g fill="rgb(0, 0, 0)" font-family="Courier New" font-size="12px"><text x="245.5" y="14.5">layer_fc</text></g><rect x="240" y="30" width="120" height="20" fill="none" stroke="rgb(0, 0, 0)" pointer-events="all"/><g fill="rgb(0, 0, 0)" font-family="Courier New" font-size="12px"><text x="245.5" y="44.5">layer_ReLU1d</text></g><rect x="240" y="60" width="120" height="20" fill="none" stroke="rgb(0, 0, 0)" pointer-events="all"/><g fill="rgb(0, 0, 0)" font-family="Courier New" font-size="12px"><text x="245.5" y="74.5">layer_sigmoid1d</text></g><rect x="240" y="90" width="120" height="20" fill="none" stroke="rgb(0, 0, 0)" pointer-events="all"/><g fill="rgb(0, 0, 0)" font-family="Courier New" font-size="12px"><text x="245.5" y="104.5">layer_conv</text></g><rect x="240" y="120" width="120" height="20" fill="none" stroke="rgb(0, 0, 0)" pointer-events="all"/><g fill="rgb(0, 0, 0)" font-family="Courier New" font-size="12px"><text x="245.5" y="134.5">layer_ReLU3d</text></g><rect x="240" y="150" width="120" height="20" fill="none" stroke="rgb(0, 0, 0)" pointer-events="all"/><g fill="rgb(0, 0, 0)" font-family="Courier New" font-size="12px"><text x="245.5" y="164.5">layer_sigmoid3d</text></g><rect x="240" y="180" width="120" height="20" fill="none" stroke="rgb(0, 0, 0)" pointer-events="all"/><g fill="rgb(0, 0, 0)" font-family="Courier New" font-size="12px"><text x="245.5" y="194.5">layer_avgpool</text></g><rect x="240" y="210" width="120" height="20" fill="none" stroke="rgb(0, 0, 0)" pointer-events="all"/><g fill="rgb(0, 0, 0)" font-family="Courier New" font-size="12px"><text x="245.5" y="224.5">layer_maxpool</text></g><rect x="240" y="240" width="120" height="20" fill="none" stroke="rgb(0, 0, 0)" pointer-events="all"/><g fill="rgb(0, 0, 0)" font-family="Courier New" font-size="12px"><text x="245.5" y="254.5">layer_res</text></g></g></svg>
