<?xml version="1.0" encoding="UTF-8"?>
<!DOCTYPE svg PUBLIC "-//W3C//DTD SVG 1.1//EN" "http://www.w3.org/Graphics/SVG/1.1/DTD/svg11.dtd">
<svg xmlns="http://www.w3.org/2000/svg" xmlns:xlink="http://www.w3.org/1999/xlink" version="1.1" width="221px" height="111px" viewBox="-0.5 -0.5 221 111"><defs/><g><path d="M 60 55 L 134.45 13.12" fill="none" stroke="rgb(0, 0, 0)" stroke-miterlimit="10" pointer-events="stroke"/><path d="M 139.03 10.55 L 134.07 16.01 L 134.45 13.12 L 131.78 11.95 Z" fill="rgb(0, 0, 0)" stroke="rgb(0, 0, 0)" stroke-miterlimit="10" pointer-events="all"/><path d="M 60 55 L 133.74 41.17" fill="none" stroke="rgb(0, 0, 0)" stroke-miterlimit="10" pointer-events="stroke"/><path d="M 138.9 40.21 L 132.45 43.79 L 133.74 41.17 L 131.59 39.2 Z" fill="rgb(0, 0, 0)" stroke="rgb(0, 0, 0)" stroke-miterlimit="10" pointer-events="all"/><path d="M 60 55 L 133.74 68.83" fill="none" stroke="rgb(0, 0, 0)" stroke-miterlimit="10" pointer-events="stroke"/><path d="M 138.9 69.79 L 131.59 70.8 L 133.74 68.83 L 132.45 66.21 Z" fill="rgb(0, 0, 0)" stroke="rgb(0, 0, 0)" stroke-miterlimit="10" pointer-events="all"/><path d="M 60 55 L 134.45 96.88" fill="none" stroke="rgb(0, 0, 0)" stroke-miterlimit="10" pointer-events="stroke"/><path d="M 139.03 99.45 L 131.78 98.05 L 134.45 96.88 L 134.07 93.99 Z" fill="rgb(0, 0, 0)" stroke="rgb(0, 0, 0)" stroke-miterlimit="10" pointer-events="all"/><rect x="0" y="40" width="60" height="30" fill="none" stroke="rgb(0, 0, 0)" pointer-events="all"/><g fill="rgb(0, 0, 0)" font-family="Courier New" font-size="12px"><text x="5.5" y="59.5">network</text></g><rect x="140" y="0" width="80" height="20" fill="none" stroke="rgb(0, 0, 0)" pointer-events="all"/><g fill="rgb(0, 0, 0)" font-family="Courier New" font-size="12px"><text x="145.5" y="14.5">LeNet</text></g><rect x="140" y="30" width="80" height="20" fill="none" stroke="rgb(0, 0, 0)" pointer-events="all"/><g fill="rgb(0, 0, 0)" font-family="Courier New" font-size="12px"><text x="145.5" y="44.5">AlexNet</text></g><rect x="140" y="60" width="80" height="20" fill="none" stroke="rgb(0, 0, 0)" pointer-events="all"/><g fill="rgb(0, 0, 0)" font-family="Courier New" font-size="12px"><text x="145.5" y="74.5">ResNet18</text></g><rect x="140" y="90" width="80" height="20" fill="none" stroke="rgb(0, 0, 0)" pointer-events="all"/><g fill="rgb(0, 0, 0)" font-family="Courier New" font-size="12px"><text x="145.5" y="104.5">VGG11</text></g></g></svg>
